<svg height="512" width="512" xmlns="http://www.w3.org/2000/svg">
  <path fill="#e53e3e" d="M171.41 262.572l34.976-66.287a15.001 15.001 0 0 1 27.686 2.865l32.087 111.873 28.583-41.902a14.999 14.999 0 0 1 12.392-6.547h185.67C505.24 240.05 512 214.516 512 188.382c0-84.566-68.8-153.365-153.365-153.365-37.996 0-74.61 14.206-102.635 39.417-28.024-25.211-64.639-39.417-102.635-39.417C68.8 35.017 0 103.816 0 188.382c0 26.135 6.76 51.668 19.197 74.19z"/>
  <path fill="#e53e3e" d="M315.059 292.572l-42.119 61.747a15.005 15.005 0 0 1-14.777 6.357 14.998 14.998 0 0 1-12.034-10.673L215.516 243.27l-21.793 41.304c-2.597 4.92-7.703 8-13.267 8H40.834a152.344 152.344 0 0 0 8.518 8.514L228.008 466.04A41.151 41.151 0 0 0 256 476.983c10.913 0 21.179-4.207 28.946-11.854l177.702-164.043c2.96-2.733 5.8-5.574 8.518-8.514z"/>
</svg>
