<svg xmlns="http://www.w3.org/2000/svg" viewBox="0 0 182 182">
  <path fill="#3182ce" d="M163.555 92.88c-3.871-4.871-8.688-10.933-7.284-17.467 2.51-11.684 2.831-36.314-11.882-54.523C133.189 7.028 115.87 0 92.913 0 66.431 0 46.101 6.863 32.488 20.398c-12.532 12.459-18.887 29.94-18.887 51.958 0 32.006 20.937 46.416 32.184 54.157 2.149 1.48 4.811 3.312 5.437 4.124.951 2.791-2.059 8.87-4.436 12.157a4 4 0 0 0 1.007 5.675l48.976 32.853a3.966 3.966 0 0 0 1.557.618 4 4 0 0 0 4.487-5.206c-.402-1.978-2.127-12.977 6.759-22.823 3.533-3.915 8.693-5.661 16.732-5.661 2.645 0 5.207.181 7.686.355 2.106.148 4.096.289 5.86.289h.002c2.385 0 5.103-.21 7.175-1.764 4.521-3.391 5.636-7.761 6.532-11.271.329-1.288.64-2.505 1.082-3.547 1.05-2.469 1.373-3.774 1.634-4.824.15-.61.251-1.013.498-1.633.277-.697.564-1.364.872-2.081.441-1.029.923-2.152 1.478-3.569.226-.577.484-1.111.757-1.677.958-1.982 2.038-4.22 1.846-8.184.309-.205.775-.465 1.118-.654 1.942-1.079 5.557-3.087 5.557-7.739-.002-2.975-2.14-5.665-4.846-9.071zm-83.063 16.958c-.293.167-5.539 3.098-12.129 3.098-2.3 0-4.762-.356-7.236-1.313-6.476-2.502-11.242-8.313-14.167-17.27-2.74-8.394-2.131-14.975 1.813-19.561 6.748-7.851 20.142-5.877 21.647-5.626 2.18.363 3.651 2.424 3.288 4.603s-2.426 3.64-4.6 3.289c-2.874-.464-11.029-.838-14.278 2.96-1.986 2.32-2.075 6.308-.265 11.853 2.143 6.561 5.32 10.695 9.445 12.289 5.961 2.306 12.458-1.238 12.522-1.273a4.002 4.002 0 0 1 5.455 1.496 3.998 3.998 0 0 1-1.495 5.455z"/>
</svg>
